<svg width="700" height="700" viewBox="0 0 700 700" fill="none" xmlns="http://www.w3.org/2000/svg">
<rect width="700" height="700" rx="350" fill="#3C5EB7"/>
<path d="M314.35 359.218C314.35 336.257 332.926 317.645 355.84 317.645C378.755 317.645 397.33 336.257 397.33 359.218V586.427C397.33 609.387 378.755 628 355.84 628C332.926 628 314.35 609.387 314.35 586.427V359.218Z" fill="white"/>
<path d="M537 317.645V400.79H307.778V317.645L537 317.645Z" fill="white"/>
<path d="M537 483.524C537 506.484 518.424 525.097 495.51 525.097C472.596 525.097 454.02 506.484 454.02 483.524L454.02 359.218C454.02 336.257 472.596 317.645 495.51 317.645C518.424 317.645 537 336.258 537 359.218L537 483.524Z" fill="white"/>
<path d="M397.33 525.097V441.951H537V483.524C537 506.484 518.424 525.097 495.51 525.097H397.33Z" fill="white"/>
<path d="M164 153H355.84C378.755 153 397.33 171.613 397.33 194.573C397.33 217.533 378.755 236.146 355.84 236.146H164V153Z" fill="white"/>
<path d="M164 317.645H372.683V400.79H205.49C182.576 400.79 164 382.178 164 359.218V317.645Z" fill="white"/>
<path d="M246.98 153L246.98 400.79H205.49C182.576 400.79 164 382.178 164 359.218V153H246.98Z" fill="white"/>
</svg>
