<svg width="454" height="577" viewBox="0 0 454 577" fill="none" xmlns="http://www.w3.org/2000/svg">
<path d="M183 250.5C183 222.61 205.61 200 233.5 200C261.39 200 284 222.61 284 250.5V526.5C284 554.39 261.39 577 233.5 577C205.61 577 183 554.39 183 526.5V250.5Z" fill="#3C5EB7"/>
<path d="M454 200V301H175V200L454 200Z" fill="#3C5EB7"/>
<path d="M454 401.5C454 429.39 431.39 452 403.5 452C375.61 452 353 429.39 353 401.5L353 250.5C353 222.61 375.61 200 403.5 200C431.39 200 454 222.61 454 250.5L454 401.5Z" fill="#3C5EB7"/>
<path d="M284 452V351H454V401.5C454 429.39 431.39 452 403.5 452H284Z" fill="#3C5EB7"/>
<path d="M0 0H233.5C261.39 0 284 22.6096 284 50.5C284 78.3904 261.39 101 233.5 101H0V0Z" fill="#3C5EB7"/>
<path d="M0 200H254V301H50.5C22.6096 301 0 278.39 0 250.5V200Z" fill="#3C5EB7"/>
<path d="M101 0L101 301H50.5C22.6096 301 0 278.39 0 250.5V0H101Z" fill="#3C5EB7"/>
</svg>
